# xmcd
#
# Track frame offsets: 
#        150
#        14624
#        28967
#        45146
#        60327
#        74132
#        89260
#        104402
#        120222
#        138562
#        152199
#        167836
#
# Disc length: 2409 seconds
#
# Revision: 0
# Processed by: cddbd v1.5.2PL0 Copyright (c) Steve Scherf et al.
# Submitted via: ExactAudioCopy v0.99pb5
#
DISCID=9f09670c
DTITLE=Tony Christie - So deep is the night
DYEAR=2000
DGENRE=Opera
TTITLE0=Is this the way to Amarillo
TTITLE1=Tie A Yellow Ribbon Round The Old Oak Tree
TTITLE2=So Deep Is The Night
TTITLE3=Drive savely darlin'
TTITLE4=Daddy don't you walk so fast
TTITLE5=I'm not in love
TTITLE6=On This Night of a Thousand Stars
TTITLE7=Didn't We
TTITLE8=My sweet lord
TTITLE9=Have You Ever Been In Georgia
TTITLE10=I Did What I Did For Maria
TTITLE11=On Broadway
EXTD=
EXTT0=
EXTT1=
EXTT2=
EXTT3=
EXTT4=
EXTT5=
EXTT6=
EXTT7=
EXTT8=
EXTT9=
EXTT10=
EXTT11=
PLAYORDER=
